<svg xmlns="http://www.w3.org/2000/svg" xmlns:xlink="http://www.w3.org/1999/xlink" viewBox="0 0 700 540" width="700" height="540"><path d="M 64.133,185.617 C 64.133,189.707 64.133,189.707 64.133,193.797" stroke-width="5.470" stroke="black" fill="none" stroke-linecap="round"></path><path d="M 64.133,193.797 C 64.133,196.436 64.133,196.436 64.133,199.074" stroke-width="5.035" stroke="black" fill="none" stroke-linecap="round"></path><path d="M 64.133,199.074 C 64.133,203.834 64.133,203.834 64.133,208.594" stroke-width="4.547" stroke="black" fill="none" stroke-linecap="round"></path><path d="M 64.133,208.594 C 64.133,212.258 64.133,212.258 64.133,215.922" stroke-width="4.586" stroke="black" fill="none" stroke-linecap="round"></path><path d="M 64.133,215.922 C 64.133,220.266 64.133,220.266 64.133,224.609" stroke-width="4.511" stroke="black" fill="none" stroke-linecap="round"></path><path d="M 64.133,224.609 C 64.133,227.641 64.133,227.641 64.133,230.672" stroke-width="4.854" stroke="black" fill="none" stroke-linecap="round"></path><path d="M 64.133,230.672 C 64.075,233.823 64.133,233.822 64.133,236.973" stroke-width="4.745" stroke="black" fill="none" stroke-linecap="round"></path><path d="M 64.133,236.973 C 64.194,240.384 64.196,240.382 64.375,243.789" stroke-width="4.886" stroke="black" fill="none" stroke-linecap="round"></path><path d="M 64.375,243.789 C 64.585,246.874 64.539,246.876 64.824,249.957" stroke-width="4.812" stroke="black" fill="none" stroke-linecap="round"></path><path d="M 64.824,249.957 C 65.138,253.371 65.089,253.374 65.383,256.789" stroke-width="4.720" stroke="black" fill="none" stroke-linecap="round"></path><path d="M 65.383,256.789 C 65.570,260.311 65.634,260.306 65.816,263.828" stroke-width="4.873" stroke="black" fill="none" stroke-linecap="round"></path><path d="M 65.816,263.828 C 65.971,266.764 66.021,266.758 66.285,269.684" stroke-width="4.804" stroke="black" fill="none" stroke-linecap="round"></path><path d="M 66.285,269.684 C 66.678,273.313 66.676,273.309 67.227,276.918" stroke-width="4.885" stroke="black" fill="none" stroke-linecap="round"></path><path d="M 67.227,276.918 C 67.887,280.875 67.830,280.883 68.590,284.824" stroke-width="4.868" stroke="black" fill="none" stroke-linecap="round"></path><path d="M 68.590,284.824 C 69.197,287.816 69.125,287.828 69.703,290.824" stroke-width="4.983" stroke="black" fill="none" stroke-linecap="round"></path><path d="M 69.703,290.824 C 70.119,293.466 70.146,293.460 70.488,296.113" stroke-width="4.897" stroke="black" fill="none" stroke-linecap="round"></path><path d="M 70.488,296.113 C 70.825,298.646 70.841,298.643 71.148,301.180" stroke-width="5.046" stroke="black" fill="none" stroke-linecap="round"></path><path d="M 71.148,301.180 C 71.498,303.800 71.483,303.802 71.805,306.426" stroke-width="5.081" stroke="black" fill="none" stroke-linecap="round"></path><path d="M 71.805,306.426 C 72.202,309.381 72.150,309.384 72.453,312.348" stroke-width="5.050" stroke="black" fill="none" stroke-linecap="round"></path><path d="M 72.453,312.348 C 72.643,315.126 72.688,315.121 72.777,317.906" stroke-width="5.150" stroke="black" fill="none" stroke-linecap="round"></path><path d="M 72.777,317.906 C 72.928,320.440 72.899,320.440 72.965,322.977" stroke-width="5.209" stroke="black" fill="none" stroke-linecap="round"></path><path d="M 72.965,322.977 C 72.965,326.867 73.022,326.866 72.965,330.758" stroke-width="5.089" stroke="black" fill="none" stroke-linecap="round"></path><path d="M 72.965,330.758 C 72.965,333.475 72.965,333.475 72.965,336.191" stroke-width="5.085" stroke="black" fill="none" stroke-linecap="round"></path><path d="M 72.965,336.191 C 72.965,339.703 72.965,339.703 72.965,343.215" stroke-width="4.781" stroke="black" fill="none" stroke-linecap="round"></path><path d="M 72.965,343.215 C 72.784,346.900 72.965,346.891 72.965,350.566" stroke-width="4.671" stroke="black" fill="none" stroke-linecap="round"></path><path d="M 72.965,350.566 C 73.233,354.131 73.141,354.128 73.680,357.672" stroke-width="4.947" stroke="black" fill="none" stroke-linecap="round"></path><path d="M 52.641,205.988 C 57.716,204.648 57.633,204.426 62.625,202.863" stroke-width="5.449" stroke="black" fill="none" stroke-linecap="round"></path><path d="M 62.625,202.863 C 65.765,201.462 65.851,201.691 68.910,200.074" stroke-width="4.903" stroke="black" fill="none" stroke-linecap="round"></path><path d="M 68.910,200.074 C 72.930,198.212 72.960,198.287 77.016,196.512" stroke-width="4.586" stroke="black" fill="none" stroke-linecap="round"></path><path d="M 77.016,196.512 C 80.495,194.967 80.517,195.054 84.086,193.758" stroke-width="4.075" stroke="black" fill="none" stroke-linecap="round"></path><path d="M 84.086,193.758 C 87.528,192.617 87.508,192.606 91.043,191.789" stroke-width="4.454" stroke="black" fill="none" stroke-linecap="round"></path><path d="M 91.043,191.789 C 94.326,190.963 94.315,191.018 97.660,190.559" stroke-width="4.148" stroke="black" fill="none" stroke-linecap="round"></path><path d="M 97.660,190.559 C 100.999,190.265 100.976,190.156 104.344,190.176" stroke-width="4.519" stroke="black" fill="none" stroke-linecap="round"></path><path d="M 104.344,190.176 C 108.183,190.024 108.175,190.074 112.012,190.176" stroke-width="4.568" stroke="black" fill="none" stroke-linecap="round"></path><path d="M 112.012,190.176 C 116.347,190.131 116.283,190.345 120.543,190.816" stroke-width="4.740" stroke="black" fill="none" stroke-linecap="round"></path><path d="M 120.543,190.816 C 123.170,191.325 123.123,191.238 125.563,192.391" stroke-width="4.831" stroke="black" fill="none" stroke-linecap="round"></path><path d="M 125.563,192.391 C 129.408,194.173 129.398,194.099 133.000,196.363" stroke-width="4.600" stroke="black" fill="none" stroke-linecap="round"></path><path d="M 133.000,196.363 C 135.792,198.135 135.806,198.074 138.359,200.191" stroke-width="4.678" stroke="black" fill="none" stroke-linecap="round"></path><path d="M 138.359,200.191 C 142.290,203.335 142.274,203.326 145.965,206.746" stroke-width="4.416" stroke="black" fill="none" stroke-linecap="round"></path><path d="M 145.965,206.746 C 148.025,208.646 148.003,208.638 149.785,210.797" stroke-width="4.687" stroke="black" fill="none" stroke-linecap="round"></path><path d="M 149.785,210.797 C 152.335,213.921 152.324,213.900 154.563,217.254" stroke-width="4.590" stroke="black" fill="none" stroke-linecap="round"></path><path d="M 154.563,217.254 C 155.996,219.448 156.008,219.417 157.133,221.789" stroke-width="4.774" stroke="black" fill="none" stroke-linecap="round"></path><path d="M 157.133,221.789 C 158.714,225.171 158.759,225.137 160.090,228.633" stroke-width="4.660" stroke="black" fill="none" stroke-linecap="round"></path><path d="M 160.090,228.633 C 161.157,231.181 161.105,231.186 161.914,233.820" stroke-width="4.786" stroke="black" fill="none" stroke-linecap="round"></path><path d="M 161.914,233.820 C 162.810,237.680 163.005,237.624 163.785,241.520" stroke-width="4.608" stroke="black" fill="none" stroke-linecap="round"></path><path d="M 163.785,241.520 C 165.159,246.455 165.046,246.483 166.387,251.426" stroke-width="4.650" stroke="black" fill="none" stroke-linecap="round"></path><path d="M 166.387,251.426 C 167.010,254.048 167.032,254.041 167.531,256.691" stroke-width="4.792" stroke="black" fill="none" stroke-linecap="round"></path><path d="M 167.531,256.691 C 168.389,260.751 168.334,260.757 169.035,264.844" stroke-width="4.581" stroke="black" fill="none" stroke-linecap="round"></path><path d="M 169.035,264.844 C 169.604,267.952 169.525,267.947 169.805,271.082" stroke-width="4.872" stroke="black" fill="none" stroke-linecap="round"></path><path d="M 169.805,271.082 C 169.805,273.975 169.989,273.963 169.805,276.867" stroke-width="4.811" stroke="black" fill="none" stroke-linecap="round"></path><path d="M 169.805,276.867 C 169.805,280.285 169.805,280.285 169.805,283.703" stroke-width="4.915" stroke="black" fill="none" stroke-linecap="round"></path><path d="M 169.805,283.703 C 170.042,286.633 169.805,286.615 169.805,289.527" stroke-width="5.008" stroke="black" fill="none" stroke-linecap="round"></path><path d="M 169.805,289.527 C 169.559,292.976 169.526,292.928 168.773,296.293" stroke-width="5.074" stroke="black" fill="none" stroke-linecap="round"></path><path d="M 168.773,296.293 C 167.811,299.144 168.083,299.210 166.852,301.996" stroke-width="5.131" stroke="black" fill="none" stroke-linecap="round"></path><path d="M 166.852,301.996 C 165.947,304.568 165.983,304.580 165.117,307.164" stroke-width="5.096" stroke="black" fill="none" stroke-linecap="round"></path><path d="M 165.117,307.164 C 164.340,310.017 164.218,309.976 163.395,312.813" stroke-width="5.043" stroke="black" fill="none" stroke-linecap="round"></path><path d="M 163.395,312.813 C 162.563,315.614 162.465,315.560 161.367,318.250" stroke-width="5.055" stroke="black" fill="none" stroke-linecap="round"></path><path d="M 161.367,318.250 C 159.992,320.728 160.199,320.825 158.668,323.234" stroke-width="5.150" stroke="black" fill="none" stroke-linecap="round"></path><path d="M 158.668,323.234 C 157.344,325.986 157.243,325.932 155.871,328.656" stroke-width="5.158" stroke="black" fill="none" stroke-linecap="round"></path><path d="M 155.871,328.656 C 154.555,330.938 154.600,330.961 153.180,333.184" stroke-width="5.202" stroke="black" fill="none" stroke-linecap="round"></path><path d="M 153.180,333.184 C 151.743,336.171 151.483,335.954 149.727,338.688" stroke-width="5.218" stroke="black" fill="none" stroke-linecap="round"></path><path d="M 149.727,338.688 C 147.694,340.829 147.899,340.968 145.492,342.777" stroke-width="5.245" stroke="black" fill="none" stroke-linecap="round"></path><path d="M 145.492,342.777 C 143.510,344.560 143.507,344.534 141.352,346.098" stroke-width="5.139" stroke="black" fill="none" stroke-linecap="round"></path><path d="M 141.352,346.098 C 138.538,348.064 138.565,348.083 135.602,349.824" stroke-width="5.109" stroke="black" fill="none" stroke-linecap="round"></path><path d="M 135.602,349.824 C 132.604,351.853 132.534,351.663 129.344,353.297" stroke-width="5.090" stroke="black" fill="none" stroke-linecap="round"></path><path d="M 129.344,353.297 C 125.650,354.687 125.752,354.888 121.898,355.895" stroke-width="5.055" stroke="black" fill="none" stroke-linecap="round"></path><path d="M 121.898,355.895 C 119.196,356.864 119.183,356.769 116.410,357.461" stroke-width="5.051" stroke="black" fill="none" stroke-linecap="round"></path><path d="M 116.410,357.461 C 112.304,358.401 112.321,358.337 108.148,358.840" stroke-width="5.021" stroke="black" fill="none" stroke-linecap="round"></path><path d="M 108.148,358.840 C 104.844,358.979 104.868,359.186 101.539,359.031" stroke-width="5.094" stroke="black" fill="none" stroke-linecap="round"></path><path d="M 101.539,359.031 C 98.732,359.031 98.733,359.075 95.926,359.031" stroke-width="5.165" stroke="black" fill="none" stroke-linecap="round"></path><path d="M 95.926,359.031 C 93.392,358.905 93.398,359.031 90.871,359.031" stroke-width="5.294" stroke="black" fill="none" stroke-linecap="round"></path><path d="M 90.871,359.031 C 88.304,359.300 88.296,359.161 85.734,359.543" stroke-width="5.409" stroke="black" fill="none" stroke-linecap="round"></path><path d="M 85.734,359.543 C 83.139,359.833 83.136,359.788 80.535,360.008" stroke-width="5.475" stroke="black" fill="none" stroke-linecap="round"></path><path d="M 80.535,360.008 C 77.743,360.338 77.752,360.195 74.961,360.266" stroke-width="5.494" stroke="black" fill="none" stroke-linecap="round"></path><path d="M 74.961,360.266 C 70.787,361.228 72.009,360.189 69.066,359.711" stroke-width="5.474" stroke="black" fill="none" stroke-linecap="round"></path><path d="M 69.066,359.711 C 67.667,356.681 67.572,358.394 68.531,354.598" stroke-width="5.536" stroke="black" fill="none" stroke-linecap="round"></path><path d="M 68.531,354.598 C 70.392,352.818 69.388,352.533 72.508,351.414" stroke-width="5.220" stroke="black" fill="none" stroke-linecap="round"></path><path d="M 72.508,351.414 C 75.186,349.281 75.248,349.596 78.242,348.152" stroke-width="5.155" stroke="black" fill="none" stroke-linecap="round"></path><path d="M 78.242,348.152 C 81.682,347.219 81.524,346.940 85.184,346.730" stroke-width="4.993" stroke="black" fill="none" stroke-linecap="round"></path><path d="M 85.184,346.730 C 88.533,346.415 88.506,346.266 91.891,346.246" stroke-width="4.985" stroke="black" fill="none" stroke-linecap="round"></path><path d="M 91.891,346.246 C 95.085,346.107 95.082,346.085 98.281,346.070" stroke-width="4.773" stroke="black" fill="none" stroke-linecap="round"></path><path d="M 98.281,346.070 C 102.795,346.070 102.794,346.019 107.309,346.070" stroke-width="4.777" stroke="black" fill="none" stroke-linecap="round"></path><path d="M 107.309,346.070 C 110.709,346.031 110.709,346.070 114.109,346.070" stroke-width="4.906" stroke="black" fill="none" stroke-linecap="round"></path><path d="M 114.109,346.070 C 117.763,346.075 117.760,346.113 121.410,346.234" stroke-width="4.710" stroke="black" fill="none" stroke-linecap="round"></path><path d="M 121.410,346.234 C 126.135,346.642 126.142,346.441 130.867,346.801" stroke-width="4.467" stroke="black" fill="none" stroke-linecap="round"></path><path d="M 130.867,346.801 C 134.574,346.801 134.570,346.925 138.281,346.801" stroke-width="4.572" stroke="black" fill="none" stroke-linecap="round"></path><path d="M 138.281,346.801 C 143.429,346.858 143.428,346.801 148.574,346.801" stroke-width="4.369" stroke="black" fill="none" stroke-linecap="round"></path><path d="M 148.574,346.801 C 151.898,346.700 151.899,346.764 155.223,346.613" stroke-width="4.599" stroke="black" fill="none" stroke-linecap="round"></path><path d="M 155.223,346.613 C 159.133,346.645 159.125,346.512 163.027,346.426" stroke-width="4.582" stroke="black" fill="none" stroke-linecap="round"></path><path d="M 163.027,346.426 C 165.987,346.439 165.935,346.262 168.828,345.848" stroke-width="4.892" stroke="black" fill="none" stroke-linecap="round"></path><path d="M 168.828,345.848 C 172.323,344.935 172.341,345.117 175.734,343.781" stroke-width="4.730" stroke="black" fill="none" stroke-linecap="round"></path><path d="M 175.734,343.781 C 178.222,342.887 178.233,342.937 180.648,341.852" stroke-width="4.813" stroke="black" fill="none" stroke-linecap="round"></path><path d="M 180.648,341.852 C 183.029,340.913 182.991,340.852 185.273,339.711" stroke-width="4.463" stroke="black" fill="none" stroke-linecap="round"></path><path d="M 185.273,339.711 C 189.607,337.949 189.260,337.575 193.109,335.176" stroke-width="4.678" stroke="black" fill="none" stroke-linecap="round"></path><path d="M 193.109,335.176 C 195.622,332.545 195.916,332.953 197.891,329.719" stroke-width="4.848" stroke="black" fill="none" stroke-linecap="round"></path><path d="M 197.891,329.719 C 200.068,326.993 200.066,327.008 201.996,324.102" stroke-width="4.215" stroke="black" fill="none" stroke-linecap="round"></path><path d="M 201.996,324.102 C 203.946,321.247 203.904,321.239 205.563,318.211" stroke-width="4.513" stroke="black" fill="none" stroke-linecap="round"></path><path d="M 205.563,318.211 C 207.797,314.227 207.692,314.211 209.488,310.031" stroke-width="4.462" stroke="black" fill="none" stroke-linecap="round"></path><path d="M 209.488,310.031 C 210.624,306.944 210.709,307.004 211.387,303.766" stroke-width="4.637" stroke="black" fill="none" stroke-linecap="round"></path><path d="M 211.387,303.766 C 212.286,300.295 212.215,300.315 212.672,296.773" stroke-width="4.091" stroke="black" fill="none" stroke-linecap="round"></path><path d="M 212.672,296.773 C 212.748,293.918 212.982,293.944 212.777,291.063" stroke-width="4.560" stroke="black" fill="none" stroke-linecap="round"></path><path d="M 212.777,291.063 C 213.017,288.366 212.805,288.385 212.785,285.707" stroke-width="4.738" stroke="black" fill="none" stroke-linecap="round"></path><path d="M 212.785,285.707 C 213.319,282.061 212.519,282.655 211.781,279.641" stroke-width="4.740" stroke="black" fill="none" stroke-linecap="round"></path><path d="M 211.781,279.641 C 209.239,276.811 209.973,276.793 206.094,275.172" stroke-width="4.852" stroke="black" fill="none" stroke-linecap="round"></path><path d="M 206.094,275.172 C 202.707,272.990 203.288,273.710 199.879,273.438" stroke-width="4.942" stroke="black" fill="none" stroke-linecap="round"></path><path d="M 199.879,273.438 C 196.761,274.593 197.563,273.804 195.805,276.801" stroke-width="5.218" stroke="black" fill="none" stroke-linecap="round"></path><path d="M 195.805,276.801 C 195.594,280.015 194.642,279.487 195.641,283.227" stroke-width="5.163" stroke="black" fill="none" stroke-linecap="round"></path><path d="M 195.641,283.227 C 195.367,286.591 195.688,286.504 195.992,289.777" stroke-width="4.857" stroke="black" fill="none" stroke-linecap="round"></path><path d="M 195.992,289.777 C 196.997,292.817 196.602,292.886 198.109,295.816" stroke-width="4.770" stroke="black" fill="none" stroke-linecap="round"></path><path d="M 198.109,295.816 C 199.887,300.721 199.922,300.703 201.844,305.551" stroke-width="4.412" stroke="black" fill="none" stroke-linecap="round"></path><path d="M 201.844,305.551 C 202.907,308.244 202.928,308.227 204.191,310.828" stroke-width="4.682" stroke="black" fill="none" stroke-linecap="round"></path><path d="M 204.191,310.828 C 205.642,313.994 205.729,313.922 207.488,316.906" stroke-width="4.642" stroke="black" fill="none" stroke-linecap="round"></path><path d="M 207.488,316.906 C 209.148,319.418 209.088,319.429 211.082,321.699" stroke-width="4.903" stroke="black" fill="none" stroke-linecap="round"></path><path d="M 211.082,321.699 C 212.955,324.517 213.168,324.160 215.527,326.391" stroke-width="4.778" stroke="black" fill="none" stroke-linecap="round"></path><path d="M 215.527,326.391 C 218.536,328.589 218.346,328.443 221.863,329.551" stroke-width="4.873" stroke="black" fill="none" stroke-linecap="round"></path><path d="M 221.863,329.551 C 224.565,329.831 224.403,330.285 227.262,329.781" stroke-width="5.027" stroke="black" fill="none" stroke-linecap="round"></path><path d="M 227.262,329.781 C 230.793,330.525 230.383,329.724 233.500,329.336" stroke-width="4.797" stroke="black" fill="none" stroke-linecap="round"></path><path d="M 233.500,329.336 C 236.787,327.626 236.384,328.070 238.445,324.871" stroke-width="4.904" stroke="black" fill="none" stroke-linecap="round"></path><path d="M 238.445,324.871 C 239.796,320.973 240.496,321.464 240.918,317.012" stroke-width="4.977" stroke="black" fill="none" stroke-linecap="round"></path><path d="M 240.918,317.012 C 241.963,314.018 241.770,314.004 242.395,310.934" stroke-width="4.985" stroke="black" fill="none" stroke-linecap="round"></path><path d="M 242.395,310.934 C 242.689,307.239 242.906,307.282 242.805,303.539" stroke-width="4.705" stroke="black" fill="none" stroke-linecap="round"></path><path d="M 242.805,303.539 C 242.805,300.703 242.894,300.706 242.805,297.867" stroke-width="4.785" stroke="black" fill="none" stroke-linecap="round"></path><path d="M 242.805,297.867 C 242.925,293.922 242.805,293.926 242.805,289.984" stroke-width="4.648" stroke="black" fill="none" stroke-linecap="round"></path><path d="M 242.805,289.984 C 242.953,286.085 242.687,286.151 242.328,282.324" stroke-width="4.796" stroke="black" fill="none" stroke-linecap="round"></path><path d="M 242.328,282.324 C 241.358,279.360 241.821,279.271 240.539,276.355" stroke-width="5.036" stroke="black" fill="none" stroke-linecap="round"></path><path d="M 240.539,276.355 C 239.377,270.640 239.854,273.845 239.320,271.293" stroke-width="5.159" stroke="black" fill="none" stroke-linecap="round"></path><path d="M 239.320,271.293 C 239.578,275.585 239.227,272.368 240.238,279.813" stroke-width="5.224" stroke="black" fill="none" stroke-linecap="round"></path><path d="M 240.238,279.813 C 241.023,283.219 240.777,283.261 241.719,286.645" stroke-width="4.820" stroke="black" fill="none" stroke-linecap="round"></path><path d="M 241.719,286.645 C 242.748,291.984 242.802,291.973 243.797,297.320" stroke-width="4.392" stroke="black" fill="none" stroke-linecap="round"></path><path d="M 243.797,297.320 C 244.361,300.489 244.418,300.477 245.059,303.629" stroke-width="4.623" stroke="black" fill="none" stroke-linecap="round"></path><path d="M 245.059,303.629 C 245.840,307.188 245.848,307.183 246.770,310.707" stroke-width="4.594" stroke="black" fill="none" stroke-linecap="round"></path><path d="M 246.770,310.707 C 248.522,316.710 247.504,313.485 248.387,316.223" stroke-width="4.908" stroke="black" fill="none" stroke-linecap="round"></path><path d="M 248.387,316.223 C 247.163,312.306 248.194,315.528 246.113,308.344" stroke-width="5.281" stroke="black" fill="none" stroke-linecap="round"></path><path d="M 246.113,308.344 C 245.341,305.837 245.446,305.827 244.953,303.266" stroke-width="4.978" stroke="black" fill="none" stroke-linecap="round"></path><path d="M 244.953,303.266 C 244.340,298.868 244.294,298.890 244.020,294.449" stroke-width="4.605" stroke="black" fill="none" stroke-linecap="round"></path><path d="M 244.020,294.449 C 243.829,290.554 243.738,290.563 243.750,286.656" stroke-width="4.810" stroke="black" fill="none" stroke-linecap="round"></path><path d="M 243.750,286.656 C 243.744,283.936 243.695,283.937 243.750,281.215" stroke-width="4.998" stroke="black" fill="none" stroke-linecap="round"></path><path d="M 243.750,281.215 C 243.509,277.523 243.758,277.545 243.777,273.875" stroke-width="4.714" stroke="black" fill="none" stroke-linecap="round"></path><path d="M 243.777,273.875 C 244.013,271.125 243.977,271.158 244.688,268.484" stroke-width="4.805" stroke="black" fill="none" stroke-linecap="round"></path><path d="M 244.688,268.484 C 244.921,264.990 245.466,265.439 246.684,262.504" stroke-width="4.763" stroke="black" fill="none" stroke-linecap="round"></path><path d="M 246.684,262.504 C 249.500,259.491 248.956,259.299 252.758,257.102" stroke-width="4.825" stroke="black" fill="none" stroke-linecap="round"></path><path d="M 252.758,257.102 C 255.401,255.568 255.207,255.306 258.098,254.133" stroke-width="4.785" stroke="black" fill="none" stroke-linecap="round"></path><path d="M 258.098,254.133 C 260.920,252.378 260.997,252.589 263.949,251.145" stroke-width="4.197" stroke="black" fill="none" stroke-linecap="round"></path><path d="M 263.949,251.145 C 266.583,249.974 266.541,250.089 269.340,249.555" stroke-width="4.619" stroke="black" fill="none" stroke-linecap="round"></path><path d="M 269.340,249.555 C 273.022,248.297 272.585,249.060 275.953,249.316" stroke-width="4.665" stroke="black" fill="none" stroke-linecap="round"></path><path d="M 275.953,249.316 C 279.390,251.053 279.152,250.428 281.602,253.816" stroke-width="4.829" stroke="black" fill="none" stroke-linecap="round"></path><path d="M 281.602,253.816 C 284.086,257.663 284.377,257.285 285.926,261.781" stroke-width="4.530" stroke="black" fill="none" stroke-linecap="round"></path><path d="M 285.926,261.781 C 287.018,264.575 287.136,264.491 287.703,267.473" stroke-width="4.706" stroke="black" fill="none" stroke-linecap="round"></path><path d="M 287.703,267.473 C 288.793,272.859 288.966,272.814 289.820,278.258" stroke-width="4.378" stroke="black" fill="none" stroke-linecap="round"></path><path d="M 289.820,278.258 C 290.265,281.840 290.492,281.785 291.102,285.324" stroke-width="4.561" stroke="black" fill="none" stroke-linecap="round"></path><path d="M 291.102,285.324 C 291.868,288.026 291.755,288.045 292.801,290.668" stroke-width="4.277" stroke="black" fill="none" stroke-linecap="round"></path><path d="M 292.801,290.668 C 293.747,293.111 293.673,293.137 294.711,295.547" stroke-width="4.690" stroke="black" fill="none" stroke-linecap="round"></path><path d="M 294.711,295.547 C 296.071,299.183 296.138,299.154 297.582,302.754" stroke-width="4.575" stroke="black" fill="none" stroke-linecap="round"></path><path d="M 297.582,302.754 C 298.606,305.238 298.626,305.222 299.820,307.625" stroke-width="4.917" stroke="black" fill="none" stroke-linecap="round"></path><path d="M 299.820,307.625 C 300.826,312.782 301.106,310.154 302.582,312.586" stroke-width="5.102" stroke="black" fill="none" stroke-linecap="round"></path><path d="M 302.582,312.586 C 306.329,310.048 305.181,312.296 308.531,306.652" stroke-width="5.260" stroke="black" fill="none" stroke-linecap="round"></path><path d="M 308.531,306.652 C 309.009,304.111 309.884,304.567 309.691,301.625" stroke-width="4.977" stroke="black" fill="none" stroke-linecap="round"></path><path d="M 309.691,301.625 C 310.212,299.109 310.361,299.187 311.234,296.805" stroke-width="4.920" stroke="black" fill="none" stroke-linecap="round"></path><path d="M 311.234,296.805 C 312.980,293.283 312.821,293.230 314.910,289.867" stroke-width="5.000" stroke="black" fill="none" stroke-linecap="round"></path><path d="M 314.910,289.867 C 316.531,287.465 316.332,287.352 317.938,284.941" stroke-width="4.864" stroke="black" fill="none" stroke-linecap="round"></path><path d="M 317.938,284.941 C 319.662,281.948 319.611,281.937 321.070,278.813" stroke-width="4.228" stroke="black" fill="none" stroke-linecap="round"></path><path d="M 321.070,278.813 C 322.439,275.957 322.354,275.955 323.320,272.957" stroke-width="4.580" stroke="black" fill="none" stroke-linecap="round"></path><path d="M 323.320,272.957 C 324.425,269.703 324.267,269.733 324.727,266.363" stroke-width="4.675" stroke="black" fill="none" stroke-linecap="round"></path><path d="M 324.727,266.363 C 324.922,261.853 325.129,261.906 324.727,257.363" stroke-width="4.739" stroke="black" fill="none" stroke-linecap="round"></path><path d="M 324.727,257.363 C 324.886,253.832 324.578,253.955 324.039,250.566" stroke-width="4.892" stroke="black" fill="none" stroke-linecap="round"></path><path d="M 324.039,250.566 C 323.360,247.142 323.239,247.482 321.434,244.664" stroke-width="4.742" stroke="black" fill="none" stroke-linecap="round"></path><path d="M 321.434,244.664 C 318.950,241.950 319.311,241.933 315.941,240.148" stroke-width="4.869" stroke="black" fill="none" stroke-linecap="round"></path><path d="M 315.941,240.148 C 313.095,237.845 313.484,238.677 310.500,238.117" stroke-width="4.823" stroke="black" fill="none" stroke-linecap="round"></path><path d="M 310.500,238.117 C 306.596,238.894 307.829,238.398 305.410,241.254" stroke-width="5.121" stroke="black" fill="none" stroke-linecap="round"></path><path d="M 305.410,241.254 C 304.814,245.070 303.914,244.232 305.137,248.793" stroke-width="5.075" stroke="black" fill="none" stroke-linecap="round"></path><path d="M 305.137,248.793 C 305.135,252.161 305.400,251.828 306.582,254.770" stroke-width="5.029" stroke="black" fill="none" stroke-linecap="round"></path><path d="M 306.582,254.770 C 309.103,257.474 308.321,257.904 311.508,260.277" stroke-width="4.698" stroke="black" fill="none" stroke-linecap="round"></path><path d="M 311.508,260.277 C 313.309,262.562 313.401,262.484 315.180,264.789" stroke-width="4.771" stroke="black" fill="none" stroke-linecap="round"></path><path d="M 315.180,264.789 C 317.413,267.753 317.551,267.613 319.992,270.379" stroke-width="4.648" stroke="black" fill="none" stroke-linecap="round"></path><path d="M 319.992,270.379 C 322.590,273.335 322.677,273.112 325.707,275.508" stroke-width="4.814" stroke="black" fill="none" stroke-linecap="round"></path><path d="M 325.707,275.508 C 328.172,276.903 327.988,277.098 330.789,277.906" stroke-width="4.995" stroke="black" fill="none" stroke-linecap="round"></path><path d="M 330.789,277.906 C 333.683,279.108 333.668,279.010 336.699,279.723" stroke-width="4.828" stroke="black" fill="none" stroke-linecap="round"></path><path d="M 336.699,279.723 C 339.979,280.325 339.925,280.380 343.273,280.449" stroke-width="4.744" stroke="black" fill="none" stroke-linecap="round"></path><path d="M 343.273,280.449 C 346.260,280.944 346.069,280.555 348.879,280.184" stroke-width="4.966" stroke="black" fill="none" stroke-linecap="round"></path><path d="M 348.879,280.184 C 351.454,279.065 351.453,279.436 353.660,277.434" stroke-width="4.862" stroke="black" fill="none" stroke-linecap="round"></path><path d="M 353.660,277.434 C 356.634,275.419 356.446,275.373 358.863,272.801" stroke-width="4.906" stroke="black" fill="none" stroke-linecap="round"></path><path d="M 358.863,272.801 C 360.565,270.677 360.542,270.830 361.477,268.254" stroke-width="5.034" stroke="black" fill="none" stroke-linecap="round"></path><path d="M 361.477,268.254 C 362.318,265.623 362.422,265.742 362.578,262.930" stroke-width="4.889" stroke="black" fill="none" stroke-linecap="round"></path><path d="M 362.578,262.930 C 362.616,259.619 362.895,259.650 362.629,256.309" stroke-width="4.951" stroke="black" fill="none" stroke-linecap="round"></path><path d="M 362.629,256.309 C 362.629,253.141 362.641,253.141 362.629,249.973" stroke-width="4.980" stroke="black" fill="none" stroke-linecap="round"></path><path d="M 362.629,249.973 C 362.629,247.225 362.629,247.225 362.629,244.477" stroke-width="4.397" stroke="black" fill="none" stroke-linecap="round"></path><path d="M 362.629,244.477 C 362.629,241.348 362.629,241.348 362.629,238.219" stroke-width="4.624" stroke="black" fill="none" stroke-linecap="round"></path><path d="M 362.629,238.219 C 362.549,234.801 362.629,234.803 362.629,231.387" stroke-width="4.681" stroke="black" fill="none" stroke-linecap="round"></path><path d="M 362.629,231.387 C 362.193,227.809 362.709,227.963 362.949,224.543" stroke-width="4.135" stroke="black" fill="none" stroke-linecap="round"></path><path d="M 362.949,224.543 C 363.759,221.939 363.529,222.041 365.301,219.852" stroke-width="4.613" stroke="black" fill="none" stroke-linecap="round"></path><path d="M 365.301,219.852 C 367.378,216.740 367.388,217.025 370.207,214.715" stroke-width="4.624" stroke="black" fill="none" stroke-linecap="round"></path><path d="M 370.207,214.715 C 372.884,212.600 372.622,212.986 375.789,212.344" stroke-width="4.892" stroke="black" fill="none" stroke-linecap="round"></path><path d="M 375.789,212.344 C 379.990,212.125 379.472,212.018 383.383,213.551" stroke-width="4.999" stroke="black" fill="none" stroke-linecap="round"></path><path d="M 383.383,213.551 C 385.539,215.127 385.693,214.521 387.195,217.137" stroke-width="4.911" stroke="black" fill="none" stroke-linecap="round"></path><path d="M 387.195,217.137 C 389.833,220.674 389.984,220.521 392.273,224.340" stroke-width="4.571" stroke="black" fill="none" stroke-linecap="round"></path><path d="M 392.273,224.340 C 393.883,226.598 393.798,226.629 395.125,229.047" stroke-width="4.743" stroke="black" fill="none" stroke-linecap="round"></path><path d="M 395.125,229.047 C 396.726,232.233 396.727,232.204 397.961,235.551" stroke-width="4.663" stroke="black" fill="none" stroke-linecap="round"></path><path d="M 397.961,235.551 C 398.793,238.114 398.898,238.068 399.469,240.719" stroke-width="4.783" stroke="black" fill="none" stroke-linecap="round"></path><path d="M 399.469,240.719 C 400.660,244.774 400.525,244.792 401.426,248.906" stroke-width="4.588" stroke="black" fill="none" stroke-linecap="round"></path><path d="M 401.426,248.906 C 402.079,252.280 402.046,252.253 402.242,255.676" stroke-width="4.835" stroke="black" fill="none" stroke-linecap="round"></path><path d="M 402.242,255.676 C 403.256,259.351 402.395,258.850 402.059,262.047" stroke-width="4.942" stroke="black" fill="none" stroke-linecap="round"></path><path d="M 402.059,262.047 C 400.037,264.688 400.855,264.757 397.441,266.488" stroke-width="4.981" stroke="black" fill="none" stroke-linecap="round"></path><path d="M 397.441,266.488 C 394.839,267.926 395.051,268.145 392.086,268.961" stroke-width="5.016" stroke="black" fill="none" stroke-linecap="round"></path><path d="M 392.086,268.961 C 389.401,270.144 389.421,269.963 386.605,270.563" stroke-width="5.132" stroke="black" fill="none" stroke-linecap="round"></path><path d="M 386.605,270.563 C 383.964,270.768 384.033,270.947 381.352,270.566" stroke-width="5.247" stroke="black" fill="none" stroke-linecap="round"></path><path d="M 381.352,270.566 C 377.864,270.963 378.228,270.325 375.133,269.676" stroke-width="5.279" stroke="black" fill="none" stroke-linecap="round"></path><path d="M 375.133,269.676 C 372.250,267.519 372.021,268.209 369.664,265.059" stroke-width="5.140" stroke="black" fill="none" stroke-linecap="round"></path><path d="M 369.664,265.059 C 367.481,263.413 367.809,263.293 366.250,261.223" stroke-width="5.203" stroke="black" fill="none" stroke-linecap="round"></path><path d="M 197.961,228.711 C 195.092,232.817 196.637,230.838 195.313,232.965" stroke-width="5.589" stroke="black" fill="none" stroke-linecap="round"></path><path d="M 195.313,232.965 C 198.766,229.098 195.536,233.115 198.848,229.309" stroke-width="5.512" stroke="black" fill="none" stroke-linecap="round"></path><path d="M 451.031,242.496 C 451.031,238.576 451.031,238.576 451.031,234.656" stroke-width="5.449" stroke="black" fill="none" stroke-linecap="round"></path><path d="M 451.031,234.656 C 451.031,230.592 451.031,230.592 451.031,226.527" stroke-width="4.184" stroke="black" fill="none" stroke-linecap="round"></path><path d="M 451.031,226.527 C 451.031,221.822 451.031,221.822 451.031,217.117" stroke-width="4.317" stroke="black" fill="none" stroke-linecap="round"></path><path d="M 451.031,217.117 C 451.031,210.432 451.031,210.432 451.031,203.746" stroke-width="4.141" stroke="black" fill="none" stroke-linecap="round"></path><path d="M 451.031,203.746 C 451.031,199.100 451.031,199.100 451.031,194.453" stroke-width="4.349" stroke="black" fill="none" stroke-linecap="round"></path><path d="M 451.031,194.453 C 450.978,188.240 451.031,188.240 451.031,182.027" stroke-width="4.137" stroke="black" fill="none" stroke-linecap="round"></path><path d="M 451.031,182.027 C 451.126,178.438 451.062,178.437 451.199,174.848" stroke-width="4.463" stroke="black" fill="none" stroke-linecap="round"></path><path d="M 451.199,174.848 C 451.355,168.897 451.321,168.897 451.422,162.945" stroke-width="4.227" stroke="black" fill="none" stroke-linecap="round"></path><path d="M 451.422,162.945 C 451.422,159.029 451.466,159.030 451.422,155.113" stroke-width="4.479" stroke="black" fill="none" stroke-linecap="round"></path><path d="M 451.422,155.113 C 451.379,150.734 451.422,150.734 451.422,146.355" stroke-width="4.493" stroke="black" fill="none" stroke-linecap="round"></path><path d="M 451.422,146.355 C 451.340,143.299 451.452,143.310 451.566,140.266" stroke-width="4.890" stroke="black" fill="none" stroke-linecap="round"></path><path d="M 451.566,140.266 C 450.710,133.214 451.793,137.229 452.328,134.215" stroke-width="4.960" stroke="black" fill="none" stroke-linecap="round"></path><path d="M 452.328,134.215 C 458.886,141.161 457.387,137.343 464.922,148.523" stroke-width="5.053" stroke="black" fill="none" stroke-linecap="round"></path><path d="M 464.922,148.523 C 467.835,152.716 468.154,152.466 470.863,156.824" stroke-width="3.868" stroke="black" fill="none" stroke-linecap="round"></path><path d="M 470.863,156.824 C 474.066,161.111 474.038,161.130 477.328,165.352" stroke-width="3.567" stroke="black" fill="none" stroke-linecap="round"></path><path d="M 477.328,165.352 C 480.994,170.039 480.956,170.068 484.645,174.738" stroke-width="3.438" stroke="black" fill="none" stroke-linecap="round"></path><path d="M 484.645,174.738 C 488.666,179.995 488.705,179.965 492.750,185.203" stroke-width="3.178" stroke="black" fill="none" stroke-linecap="round"></path><path d="M 492.750,185.203 C 499.781,194.080 499.737,194.114 506.785,202.977" stroke-width="2.600" stroke="black" fill="none" stroke-linecap="round"></path><path d="M 506.785,202.977 C 509.384,206.270 509.380,206.273 511.949,209.590" stroke-width="3.319" stroke="black" fill="none" stroke-linecap="round"></path><path d="M 511.949,209.590 C 513.794,211.996 513.802,211.989 515.621,214.414" stroke-width="3.858" stroke="black" fill="none" stroke-linecap="round"></path><path d="M 515.621,214.414 C 517.322,216.639 517.309,216.648 518.980,218.895" stroke-width="4.069" stroke="black" fill="none" stroke-linecap="round"></path><path d="M 518.980,218.895 C 520.607,221.713 520.875,221.471 522.727,224.078" stroke-width="4.082" stroke="black" fill="none" stroke-linecap="round"></path><path d="M 522.727,224.078 C 525.618,227.927 524.408,225.955 526.582,227.379" stroke-width="4.865" stroke="black" fill="none" stroke-linecap="round"></path><path d="M 526.582,227.379 C 526.598,224.569 527.648,226.773 526.785,221.770" stroke-width="5.179" stroke="black" fill="none" stroke-linecap="round"></path><path d="M 526.785,221.770 C 527.051,218.222 527.022,218.223 527.430,214.688" stroke-width="4.780" stroke="black" fill="none" stroke-linecap="round"></path><path d="M 527.430,214.688 C 527.809,211.856 527.734,211.847 528.152,209.020" stroke-width="4.411" stroke="black" fill="none" stroke-linecap="round"></path><path d="M 528.152,209.020 C 528.976,201.799 529.026,201.805 529.863,194.586" stroke-width="3.273" stroke="black" fill="none" stroke-linecap="round"></path><path d="M 529.863,194.586 C 530.309,190.431 530.373,190.441 530.945,186.305" stroke-width="3.607" stroke="black" fill="none" stroke-linecap="round"></path><path d="M 530.945,186.305 C 531.615,182.308 531.563,182.302 532.371,178.328" stroke-width="3.746" stroke="black" fill="none" stroke-linecap="round"></path><path d="M 532.371,178.328 C 533.095,175.086 532.990,175.066 533.695,171.820" stroke-width="3.904" stroke="black" fill="none" stroke-linecap="round"></path><path d="M 533.695,171.820 C 534.188,168.470 534.308,168.492 534.797,165.141" stroke-width="3.938" stroke="black" fill="none" stroke-linecap="round"></path><path d="M 534.797,165.141 C 535.952,159.346 535.860,159.329 537.039,153.539" stroke-width="3.483" stroke="black" fill="none" stroke-linecap="round"></path><path d="M 537.039,153.539 C 537.545,150.715 537.567,150.719 538.027,147.887" stroke-width="3.959" stroke="black" fill="none" stroke-linecap="round"></path><path d="M 538.027,147.887 C 538.987,141.641 539.090,141.660 540.129,135.430" stroke-width="4.035" stroke="black" fill="none" stroke-linecap="round"></path><path d="M 540.129,135.430 C 540.764,132.778 540.622,132.750 541.297,130.105" stroke-width="4.559" stroke="black" fill="none" stroke-linecap="round"></path><path d="M 541.297,130.105 C 542.001,126.392 542.036,126.399 542.672,122.672" stroke-width="4.783" stroke="black" fill="none" stroke-linecap="round"></path><path d="M 542.672,122.672 C 543.076,119.586 543.222,119.618 543.738,116.559" stroke-width="5.029" stroke="black" fill="none" stroke-linecap="round"></path><path d="M 543.738,116.559 C 544.664,114.062 544.300,113.991 545.121,111.480" stroke-width="5.312" stroke="black" fill="none" stroke-linecap="round"></path><path d="M 545.121,111.480 C 545.100,105.618 545.608,108.730 545.625,105.895" stroke-width="5.324" stroke="black" fill="none" stroke-linecap="round"></path><path d="M 545.625,105.895 C 546.502,109.330 546.289,106.243 547.500,112.730" stroke-width="5.411" stroke="black" fill="none" stroke-linecap="round"></path><path d="M 547.500,112.730 C 548.234,116.137 548.471,116.039 549.563,119.313" stroke-width="4.875" stroke="black" fill="none" stroke-linecap="round"></path><path d="M 549.563,119.313 C 552.592,125.958 552.375,126.034 555.781,132.523" stroke-width="4.177" stroke="black" fill="none" stroke-linecap="round"></path><path d="M 555.781,132.523 C 556.905,134.830 556.900,134.827 558.180,137.051" stroke-width="4.278" stroke="black" fill="none" stroke-linecap="round"></path><path d="M 558.180,137.051 C 560.252,140.635 560.239,140.638 562.449,144.141" stroke-width="4.447" stroke="black" fill="none" stroke-linecap="round"></path><path d="M 562.449,144.141 C 564.474,147.197 564.396,147.246 566.469,150.273" stroke-width="4.017" stroke="black" fill="none" stroke-linecap="round"></path><path d="M 566.469,150.273 C 567.821,152.577 567.919,152.510 569.340,154.766" stroke-width="4.574" stroke="black" fill="none" stroke-linecap="round"></path><path d="M 569.340,154.766 C 571.135,156.978 570.959,157.099 572.746,159.316" stroke-width="4.985" stroke="black" fill="none" stroke-linecap="round"></path><path d="M 572.746,159.316 C 574.127,161.605 574.260,161.515 575.590,163.840" stroke-width="5.194" stroke="black" fill="none" stroke-linecap="round"></path><path d="M 575.590,163.840 C 577.133,165.973 577.030,166.040 578.551,168.188" stroke-width="5.209" stroke="black" fill="none" stroke-linecap="round"></path><path d="M 578.551,168.188 C 580.543,171.577 580.669,171.496 582.660,174.887" stroke-width="5.086" stroke="black" fill="none" stroke-linecap="round"></path><path d="M 582.660,174.887 C 584.366,177.219 584.213,177.315 585.891,179.664" stroke-width="5.212" stroke="black" fill="none" stroke-linecap="round"></path><path d="M 585.891,179.664 C 587.320,182.188 587.424,182.123 588.777,184.695" stroke-width="5.287" stroke="black" fill="none" stroke-linecap="round"></path><path d="M 588.777,184.695 C 590.115,186.858 590.054,186.893 591.359,189.074" stroke-width="5.296" stroke="black" fill="none" stroke-linecap="round"></path><circle r="1.5" cx="606.69921875" cy="179.796875" fill="black"></circle></svg>